<svg width="76" height="32" viewBox="0 0 76 32" fill="none" xmlns="http://www.w3.org/2000/svg">
<path d="M6.456 18.776H13.624V23H0.984V0.535999H6.456V18.776ZM24.362 23.256C22.6127 23.256 21.034 22.8827 19.626 22.136C18.2393 21.3893 17.1407 20.3227 16.33 18.936C15.5407 17.5493 15.146 15.928 15.146 14.072C15.146 12.2373 15.5513 10.6267 16.362 9.24C17.1727 7.832 18.282 6.75467 19.69 6.008C21.098 5.26133 22.6767 4.888 24.426 4.888C26.1753 4.888 27.754 5.26133 29.162 6.008C30.57 6.75467 31.6793 7.832 32.49 9.24C33.3007 10.6267 33.706 12.2373 33.706 14.072C33.706 15.9067 33.29 17.528 32.458 18.936C31.6473 20.3227 30.5273 21.3893 29.098 22.136C27.69 22.8827 26.1113 23.256 24.362 23.256ZM24.362 18.52C25.4073 18.52 26.2927 18.136 27.018 17.368C27.7647 16.6 28.138 15.5013 28.138 14.072C28.138 12.6427 27.7753 11.544 27.05 10.776C26.346 10.008 25.4713 9.624 24.426 9.624C23.3593 9.624 22.474 10.008 21.77 10.776C21.066 11.5227 20.714 12.6213 20.714 14.072C20.714 15.5013 21.0553 16.6 21.738 17.368C22.442 18.136 23.3167 18.52 24.362 18.52ZM43.393 4.888C44.6517 4.888 45.7503 5.144 46.689 5.656C47.649 6.168 48.385 6.84 48.897 7.672V5.144H54.369V22.968C54.369 24.6107 54.0383 26.0933 53.377 27.416C52.737 28.76 51.745 29.8267 50.401 30.616C49.0783 31.4053 47.425 31.8 45.441 31.8C42.7957 31.8 40.6517 31.1707 39.009 29.912C37.3663 28.6747 36.4277 26.9893 36.193 24.856H41.601C41.7717 25.5387 42.177 26.072 42.817 26.456C43.457 26.8613 44.2463 27.064 45.185 27.064C46.3157 27.064 47.2117 26.7333 47.873 26.072C48.5557 25.432 48.897 24.3973 48.897 22.968V20.44C48.3637 21.272 47.6277 21.9547 46.689 22.488C45.7503 23 44.6517 23.256 43.393 23.256C41.921 23.256 40.5877 22.8827 39.393 22.136C38.1983 21.368 37.249 20.2907 36.545 18.904C35.8623 17.496 35.521 15.8747 35.521 14.04C35.521 12.2053 35.8623 10.5947 36.545 9.208C37.249 7.82133 38.1983 6.75467 39.393 6.008C40.5877 5.26133 41.921 4.888 43.393 4.888ZM48.897 14.072C48.897 12.7067 48.513 11.6293 47.745 10.84C46.9983 10.0507 46.081 9.656 44.993 9.656C43.905 9.656 42.977 10.0507 42.209 10.84C41.4623 11.608 41.089 12.6747 41.089 14.04C41.089 15.4053 41.4623 16.4933 42.209 17.304C42.977 18.0933 43.905 18.488 44.993 18.488C46.081 18.488 46.9983 18.0933 47.745 17.304C48.513 16.5147 48.897 15.4373 48.897 14.072ZM66.4558 23.256C64.7064 23.256 63.1278 22.8827 61.7198 22.136C60.3331 21.3893 59.2344 20.3227 58.4238 18.936C57.6344 17.5493 57.2398 15.928 57.2398 14.072C57.2398 12.2373 57.6451 10.6267 58.4557 9.24C59.2664 7.832 60.3758 6.75467 61.7838 6.008C63.1918 5.26133 64.7704 4.888 66.5198 4.888C68.2691 4.888 69.8478 5.26133 71.2558 6.008C72.6638 6.75467 73.7731 7.832 74.5838 9.24C75.3944 10.6267 75.7998 12.2373 75.7998 14.072C75.7998 15.9067 75.3838 17.528 74.5518 18.936C73.7411 20.3227 72.6211 21.3893 71.1918 22.136C69.7838 22.8827 68.2051 23.256 66.4558 23.256ZM66.4558 18.52C67.5011 18.52 68.3864 18.136 69.1118 17.368C69.8584 16.6 70.2318 15.5013 70.2318 14.072C70.2318 12.6427 69.8691 11.544 69.1438 10.776C68.4398 10.008 67.5651 9.624 66.5198 9.624C65.4531 9.624 64.5678 10.008 63.8638 10.776C63.1598 11.5227 62.8078 12.6213 62.8078 14.072C62.8078 15.5013 63.1491 16.6 63.8318 17.368C64.5358 18.136 65.4104 18.52 66.4558 18.52Z" fill="#222222"/>
</svg>
